<?xml version="1.0" encoding="utf-8"?>
<!-- Generator: Adobe Illustrator 23.0.1, SVG Export Plug-In . SVG Version: 6.00 Build 0)  -->
<svg version="1.1" id="Ebene_1" xmlns="http://www.w3.org/2000/svg" xmlns:xlink="http://www.w3.org/1999/xlink" x="0px" y="0px"
	 viewBox="0 0 142.53 50.47" style="enable-background:new 0 0 142.53 50.47;" xml:space="preserve">
<g>
	<path d="M44.12,35.52c-1.06,0.53-3.17,1.06-5.88,1.06c-6.27,0-10.99-3.96-10.99-11.25c0-6.96,4.72-11.68,11.62-11.68
		c2.77,0,4.52,0.59,5.28,0.99l-0.69,2.34c-1.09-0.53-2.64-0.92-4.49-0.92c-5.21,0-8.68,3.33-8.68,9.18c0,5.45,3.14,8.94,8.55,8.94
		c1.75,0,3.53-0.36,4.69-0.92L44.12,35.52z"/>
	<path d="M47.71,36.25V14h3.14l7.13,11.25c1.65,2.61,2.94,4.95,3.99,7.23l0.07-0.03c-0.26-2.97-0.33-5.68-0.33-9.14V14h2.71v22.25
		h-2.9l-7.06-11.29c-1.55-2.48-3.04-5.02-4.16-7.43l-0.1,0.03c0.17,2.81,0.23,5.48,0.23,9.18v9.51H47.71z"/>
	<path d="M84.97,35.52c-1.06,0.53-3.17,1.06-5.88,1.06c-6.27,0-10.99-3.96-10.99-11.25c0-6.96,4.72-11.68,11.62-11.68
		c2.77,0,4.52,0.59,5.28,0.99l-0.69,2.34c-1.09-0.53-2.64-0.92-4.49-0.92c-5.21,0-8.68,3.33-8.68,9.18c0,5.45,3.14,8.94,8.55,8.94
		c1.75,0,3.53-0.36,4.69-0.92L84.97,35.52z"/>
</g>
</svg>
