<?xml version="1.0" encoding="utf-8"?>
<!-- Generator: Adobe Illustrator 23.0.1, SVG Export Plug-In . SVG Version: 6.00 Build 0)  -->
<svg version="1.1" id="Ebene_1" xmlns="http://www.w3.org/2000/svg" xmlns:xlink="http://www.w3.org/1999/xlink" x="0px" y="0px"
	 viewBox="0 0 221.11 70" style="enable-background:new 0 0 221.11 70;" xml:space="preserve">
<g>
	<path d="M12.14,9.82c3.02-0.5,6.98-0.94,12.02-0.94c6.19,0,10.73,1.44,13.61,4.03c2.66,2.3,4.25,5.83,4.25,10.15
		c0,4.39-1.3,7.85-3.74,10.37c-3.31,3.53-8.71,5.33-14.83,5.33c-1.87,0-3.6-0.07-5.04-0.43v19.44h-6.26V9.82z M18.4,33.22
		c1.37,0.36,3.1,0.5,5.18,0.5c7.56,0,12.17-3.67,12.17-10.37c0-6.41-4.54-9.5-11.45-9.5c-2.74,0-4.82,0.22-5.9,0.5V33.22z"/>
	<path d="M56.13,13.13c0.07,2.16-1.51,3.89-4.03,3.89c-2.23,0-3.82-1.73-3.82-3.89c0-2.23,1.66-3.96,3.96-3.96
		C54.62,9.17,56.13,10.9,56.13,13.13z M49.08,57.78V22.93h6.34v34.85H49.08z"/>
	<path d="M100.05,56.19c-2.3,1.15-6.91,2.3-12.82,2.3c-13.68,0-23.98-8.64-23.98-24.55c0-15.19,10.3-25.49,25.35-25.49
		c6.05,0,9.86,1.3,11.52,2.16l-1.51,5.11c-2.38-1.15-5.76-2.02-9.79-2.02c-11.38,0-18.94,7.27-18.94,20.02
		c0,11.88,6.84,19.51,18.65,19.51c3.82,0,7.71-0.79,10.23-2.02L100.05,56.19z"/>
	<path d="M107.9,57.78V9.25h6.84l15.55,24.55c3.6,5.69,6.41,10.8,8.71,15.77l0.14-0.07c-0.58-6.48-0.72-12.39-0.72-19.95V9.25h5.9
		v48.53H138l-15.41-24.63c-3.38-5.4-6.62-10.95-9.07-16.2l-0.22,0.07c0.36,6.12,0.5,11.95,0.5,20.02v20.74H107.9z"/>
	<path d="M162.83,13.13c0.07,2.16-1.51,3.89-4.03,3.89c-2.23,0-3.82-1.73-3.82-3.89c0-2.23,1.66-3.96,3.96-3.96
		C161.32,9.17,162.83,10.9,162.83,13.13z M155.78,57.78V22.93h6.34v34.85H155.78z"/>
	<path d="M206.76,56.19c-2.3,1.15-6.91,2.3-12.82,2.3c-13.68,0-23.98-8.64-23.98-24.55c0-15.19,10.3-25.49,25.35-25.49
		c6.05,0,9.86,1.3,11.52,2.16l-1.51,5.11c-2.38-1.15-5.76-2.02-9.79-2.02c-11.38,0-18.94,7.27-18.94,20.02
		c0,11.88,6.84,19.51,18.65,19.51c3.82,0,7.71-0.79,10.23-2.02L206.76,56.19z"/>
</g>
</svg>
