<?xml version="1.0" encoding="utf-8"?>
<!-- Generator: Adobe Illustrator 23.0.1, SVG Export Plug-In . SVG Version: 6.00 Build 0)  -->
<svg version="1.1" id="Ebene_1" xmlns="http://www.w3.org/2000/svg" xmlns:xlink="http://www.w3.org/1999/xlink" x="0px" y="0px"
	 viewBox="0 0 181.2 142.7" style="enable-background:new 0 0 181.2 142.7;" xml:space="preserve">
<style type="text/css">
	.st0{fill:#2FAC66;}
</style>
<path class="st0" d="M166.2,47.8h-31.4h-4.5H127l-19.8-36.6c-1.4-2.7-4.8-3.7-7.4-2.2c-2.7,1.4-3.7,4.8-2.2,7.4l17,31.4h-49l17-31.4
	c1.5-2.7,0.5-6-2.2-7.4c-2.7-1.5-6-0.5-7.5,2.2L53,47.8H13.6c-3,0-5.5,2.5-5.5,5.5c0,3,2.5,5.5,5.5,5.5h33.5l-3.2,5.9
	c-1.5,2.7-0.5,6,2.2,7.5c0.8,0.4,1.7,0.7,2.6,0.7c2,0,3.8-1,4.8-2.9l6-11.2h60.9l6,11.2c1,1.8,2.9,2.9,4.8,2.9
	c0.9,0,1.8-0.2,2.6-0.7c2.7-1.4,3.7-4.8,2.2-7.5l-3.2-5.9h3.4h29.9c3,0,5.5-2.5,5.5-5.5C171.8,50.3,169.3,47.8,166.2,47.8z"/>
<path class="st0" d="M170.2,64.6c-0.9-1.3-2.4-2-4-2h-27.8l0.4,0.8c2.2,4.1,0.7,9.3-3.4,11.5c-1.3,0.7-2.7,1-4,1
	c-3,0-5.9-1.6-7.5-4.5l-4.8-8.9H61l-4.8,8.9c-1.5,2.8-4.5,4.5-7.5,4.5c-1.4,0-2.8-0.3-4-1c-4.1-2.2-5.7-7.4-3.4-11.5l0.4-0.8H12.8
	c-1.6,0-3.1,0.8-4,2S7.5,67.5,8,69.1l20,62.5c0.7,2.1,2.6,3.5,4.8,3.5h113.9c2.2,0,4.1-1.4,4.8-3.5L171,69
	C171.4,67.5,171.2,65.9,170.2,64.6z"/>
</svg>
