<?xml version="1.0" encoding="utf-8"?>
<!-- Generator: Adobe Illustrator 23.0.1, SVG Export Plug-In . SVG Version: 6.00 Build 0)  -->
<svg version="1.1" id="Ebene_1" xmlns="http://www.w3.org/2000/svg" xmlns:xlink="http://www.w3.org/1999/xlink" x="0px" y="0px"
	 viewBox="0 0 181.22 142.68" style="enable-background:new 0 0 181.22 142.68;" xml:space="preserve">
<style type="text/css">
	.st0{fill:#CA9E67;}
	.st1{fill:#2FAC66;}
</style>
<path class="st0" d="M48.7,72.87c-0.88,0-1.78-0.21-2.61-0.66c-2.67-1.45-3.67-4.78-2.22-7.45l28.95-53.52
	c1.45-2.67,4.78-3.67,7.45-2.22s3.67,4.78,2.22,7.45L53.54,69.99C52.55,71.83,50.65,72.87,48.7,72.87z"/>
<path class="st0" d="M131.36,72.87c-1.95,0-3.85-1.04-4.84-2.88L97.56,16.47c-1.45-2.67-0.45-6.01,2.22-7.45
	c2.67-1.45,6.01-0.45,7.45,2.22l28.95,53.52c1.45,2.67,0.45,6.01-2.22,7.45C133.14,72.66,132.24,72.87,131.36,72.87z"/>
<path class="st1" d="M117.06,58.82l-5.95-11H68.94l-5.95,11H117.06z"/>
<path class="st1" d="M49.62,47.82H13.59c-3.04,0-5.5,2.46-5.5,5.5s2.46,5.5,5.5,5.5h30.08L49.62,47.82z"/>
<path class="st1" d="M166.25,47.82h-35.81l5.95,11h29.86c3.04,0,5.5-2.46,5.5-5.5S169.28,47.82,166.25,47.82z"/>
<path class="st1" d="M170.21,64.58c-0.94-1.28-2.44-2.04-4.03-2.04H138.4l0.43,0.79c2.23,4.13,0.7,9.29-3.43,11.52
	c-1.29,0.7-2.67,1.03-4.04,1.03c-3.02,0-5.95-1.61-7.48-4.46l-4.8-8.88h-58.1l-4.8,8.88c-1.54,2.84-4.46,4.46-7.48,4.46
	c-1.37,0-2.75-0.33-4.04-1.03c-4.13-2.23-5.67-7.39-3.43-11.52l0.43-0.79h-28.9c-1.6,0-3.1,0.76-4.04,2.05S7.51,67.54,8,69.06
	l19.97,62.49c0.66,2.07,2.59,3.48,4.76,3.48h113.88c2.19,0,4.12-1.42,4.77-3.5l19.59-62.49C171.43,67.52,171.16,65.86,170.21,64.58z
	"/>
</svg>
